<?xml version="1.0" encoding="UTF-8"?>
<svg id="Layer_1" xmlns="http://www.w3.org/2000/svg" xmlns:xlink="http://www.w3.org/1999/xlink" version="1.1" viewBox="0 0 44 44">
  <!-- Generator: Adobe Illustrator 29.1.0, SVG Export Plug-In . SVG Version: 2.1.0 Build 142)  -->
  <defs>
    <style>
      .st0 {
        fill: none;
      }

      .st1 {
        fill: #144d76;
      }

      .st2 {
        clip-path: url(#clippath);
      }
    </style>
    <clipPath id="clippath">
      <rect class="st0" width="44" height="44"/>
    </clipPath>
  </defs>
  <g class="st2">
    <path class="st1" d="M43.4,35.5h-1.3V13.1c0-.4-.2-.8-.5-1.1-.3-.3-.7-.5-1.1-.5h-3.2c-.1-1.6-.6-3.2-1.5-4.6-.9-1.4-2.1-2.5-3.6-3.3-1.4-.8-3.1-1.2-4.7-1.1-1.6,0-3.2.5-4.7,1.3-1.4.8-2.5,1.9-3.4,3.3s-1.3,2.9-1.4,4.5H3.5c-.4,0-.8.2-1.1.5-.3.3-.5.7-.5,1.1v22.4H.6c-.2,0-.3,0-.4.2C0,35.8,0,35.9,0,36.1v2.4c0,.8.3,1.5.8,2.1.3.3.6.5.9.7.3.2.7.2,1.1.2h38.4c.4,0,.8,0,1.1-.2.3-.2.7-.4.9-.7.5-.6.8-1.3.8-2.1v-2.4c0-.2,0-.3-.2-.4-.1-.1-.3-.2-.4-.2ZM23.4,4.8c1.4-.8,3.1-1.2,4.8-1.1,1.7.1,3.3.7,4.6,1.7,1.3,1,2.3,2.4,2.9,4,.5,1.6.6,3.3.2,4.9-.4,1.6-1.3,3.1-2.6,4.2-1.3,1.1-2.8,1.8-4.5,2-1.7.2-3.3,0-4.8-.8-1.5-.7-2.7-1.9-3.6-3.3-1.1-1.9-1.4-4.2-.8-6.4.6-2.2,2-4,3.9-5.1h0ZM40.9,35.5h-13.9v1.9c0,.5-.2,1-.5,1.3-.3.3-.8.5-1.3.5h-6.4c-.5,0-1-.2-1.3-.5-.3-.3-.5-.8-.5-1.3v-1.9H3.1V13.1c0,0,0-.1,0-.2,0,0,0,0,0-.1,0,0,0,0,.1,0,0,0,.1,0,.2,0h14.6c0,1.5.6,3,1.4,4.4.8,1.3,1.9,2.4,3.2,3.2,1.3.8,2.8,1.3,4.3,1.4,1.5.1,3.1-.1,4.5-.8l.7,1.3-.7.4,3.5,6.1c.3.4.7.8,1.2.9.5.1,1,0,1.5-.2.4-.3.8-.7.9-1.2.1-.5,0-1-.2-1.5l-3.5-6.1-.7.4-.7-1.3c1.1-.8,2-1.9,2.7-3.1.7-1.2,1.1-2.6,1.1-4h3.2c0,0,.1,0,.2,0,0,0,0,0,.1,0,0,0,0,0,0,.1s0,.1,0,.2v22.4ZM18.2,35.5h7.7v1.9c0,.2,0,.3-.2.5-.1.1-.3.2-.5.2h-6.4c-.2,0-.3,0-.5-.2,0,0-.1-.1-.1-.2,0,0,0-.2,0-.3v-1.9ZM23.5,16.1h8.4c.3,0,.5,0,.7-.2.2-.1.4-.3.5-.5.1-.2.2-.5.2-.7,0-.3,0-.5-.2-.7l-2.1-3.6-2.1-3.6c-.1-.2-.3-.4-.5-.5-.2-.1-.5-.2-.7-.2s-.5,0-.7.2c-.2.1-.4.3-.5.5l-2.1,3.6-2.1,3.6c-.1.2-.2.5-.2.7,0,.3,0,.5.2.7.1.2.3.4.5.5.2.1.5.2.7.2h0ZM27.1,8.6c0-.2,0-.3.2-.4.1-.1.3-.2.4-.2s.3,0,.4.2c.1.1.2.3.2.4v4c0,.2,0,.3-.2.4-.1.1-.3.2-.4.2s-.3,0-.4-.2c-.1-.1-.2-.3-.2-.4v-4ZM27.1,14.1c0-.2,0-.3.2-.4.1-.1.3-.2.4-.2s.3,0,.4.2c.1.1.2.3.2.4h0c0,.3,0,.4-.2.6-.1.1-.3.2-.4.2s-.3,0-.4-.2c-.1-.1-.2-.3-.2-.4h0ZM9.4,27.9c0,0,0,.1-.2.2,0,0-.1,0-.2,0,0,0-.2,0-.2,0,0,0-.2,0-.2,0-1-.6-1.8-1.5-2.4-2.6-.6-1-.9-2.2-.9-3.4s.3-2.4.9-3.4c.6-1,1.4-1.9,2.4-2.6.1,0,.3-.1.5,0s.3.1.4.3.1.3,0,.5c0,.2-.1.3-.3.4-.8.5-1.5,1.3-2,2.1-.5.9-.7,1.8-.7,2.8s.2,2,.7,2.8c.5.9,1.2,1.6,2,2.1.1,0,.2.2.3.4,0,.2,0,.3,0,.5ZM18.8,25.5c-.6,1-1.4,1.9-2.4,2.6,0,0-.1,0-.2,0,0,0-.2,0-.2,0,0,0-.2,0-.2,0,0,0-.1-.1-.2-.2,0,0,0-.1,0-.2,0,0,0-.2,0-.2,0,0,0-.2,0-.2,0,0,.1-.1.2-.2.8-.5,1.5-1.3,2-2.1.5-.9.7-1.8.7-2.8s-.2-2-.7-2.8c-.5-.9-1.2-1.6-2-2.1,0,0-.1,0-.2-.2,0,0,0-.1,0-.2,0,0,0-.2,0-.2,0,0,0-.2,0-.2,0,0,0-.1.2-.2,0,0,.1,0,.2,0,0,0,.2,0,.2,0,0,0,.2,0,.2,0,1.5,1,2.6,2.5,3,4.2s.2,3.6-.6,5.2ZM15,25.9c-.1,0-.3.1-.4,0-.2,0-.3-.1-.4-.3,0-.1-.1-.3,0-.4,0-.2.1-.3.3-.4.5-.3.9-.7,1.1-1.2.3-.5.4-1.1.4-1.6s-.1-1.1-.4-1.6c-.3-.5-.7-.9-1.1-1.2-.1,0-.2-.2-.3-.4s0-.3,0-.5c0-.1.2-.2.4-.3s.3,0,.5,0c.6.4,1.2,1,1.5,1.7.4.7.6,1.4.6,2.2s-.2,1.5-.6,2.2c-.4.7-.9,1.2-1.5,1.7ZM10,25.9c-.6-.4-1.2-1-1.5-1.7-.4-.7-.6-1.4-.6-2.2s.2-1.5.6-2.2c.4-.7.9-1.2,1.5-1.7.1,0,.3-.1.5,0,.2,0,.3.1.4.3s.1.3,0,.5-.1.3-.3.4c-.5.3-.9.7-1.1,1.2-.3.5-.4,1.1-.4,1.6s.1,1.1.4,1.6c.3.5.7.9,1.1,1.2.1,0,.2.2.3.4s0,.3,0,.5c0,.1-.2.2-.4.3-.2,0-.3,0-.5,0ZM15,31.6c0,.2,0,.3-.2.4s-.3.2-.4.2h-3.8c-.2,0-.3,0-.4-.2-.1-.1-.2-.3-.2-.4s0-.3.2-.4c.1-.1.3-.2.4-.2h1.3v-7c-.5-.1-.9-.5-1.1-.9-.3-.4-.4-.9-.3-1.4,0-.5.3-.9.7-1.2.4-.3.8-.5,1.3-.5s1,.2,1.3.5c.4.3.6.8.7,1.2,0,.5,0,1-.3,1.4-.3.4-.7.7-1.1.9v7h1.3c0,0,.2,0,.2,0,0,0,.1,0,.2.1,0,0,.1.1.1.2s0,.2,0,.2Z"/>
  </g>
</svg>