<?xml version="1.0" encoding="UTF-8"?>
<svg id="Layer_1" xmlns="http://www.w3.org/2000/svg" xmlns:xlink="http://www.w3.org/1999/xlink" version="1.1" viewBox="0 0 44 44">
  <!-- Generator: Adobe Illustrator 29.1.0, SVG Export Plug-In . SVG Version: 2.1.0 Build 142)  -->
  <defs>
    <style>
      .st0 {
        fill: none;
      }

      .st1 {
        fill: #144d76;
        fill-rule: evenodd;
      }

      .st2 {
        clip-path: url(#clippath);
      }
    </style>
    <clipPath id="clippath">
      <rect class="st0" width="44" height="44"/>
    </clipPath>
  </defs>
  <g class="st2">
    <path class="st1" d="M37.7,30.3h-8.4v3.8c0,.4-.4.8-.8.8s-.8-.4-.8-.8v-3.8h-2.1v7.6c1.1.3,2,1.4,2,2.6s-1.2,2.7-2.7,2.7-2.7-1.2-2.7-2.7.8-2.3,1.9-2.6v-7.6h-2.3v3.8c0,.4-.3.8-.8.8s-.8-.4-.8-.8v-3.8h-2.1v7.6c1.1.3,2,1.4,2,2.6s-1.2,2.7-2.7,2.7-2.7-1.2-2.7-2.7.8-2.3,2-2.6v-7.6H6.3c-.4,0-.8-.3-.8-.8,0-4.4,1.7-8.4,4.5-11.3l4,4c.2-.2.4-.4.6-.6l-4-4c3-2.8,6.9-4.5,11.3-4.5s8.4,1.7,11.3,4.5l-4,4c.2.2.4.4.6.6l4-4c2.8,2.9,4.5,6.9,4.5,11.2h0c0,.5-.3.9-.8.9ZM5.7,18.9c-3.1,0-5.7-2.6-5.7-5.7s2.6-5.7,5.7-5.7,5.6,2.6,5.6,5.7-2.5,5.7-5.6,5.7ZM37,12c.2,0,.4-.2.4-.4s-.2-.4-.4-.4h-.7c-.2,0-.4.2-.4.4s.2.4.4.4h.7ZM24,5.3c.2,0,.4-.2.4-.4s-.2-.4-.4-.4h-.7c-.2,0-.4.2-.4.4s.2.4.4.4h.7ZM20.7,5.3c.2,0,.4-.2.4-.4s-.2-.4-.4-.4h-.8c-.2,0-.4.2-.4.4s.2.4.4.4h.8ZM23.5,8.7c.2,0,.4-.2.4-.4s-.2-.4-.4-.4h-2.9c-.3,0-.4.2-.4.4s.2.4.4.4h2.9ZM6.8,15.4c.1,0,.2,0,.3-.1.2-.2.2-.4,0-.6-.8-.8-2.1-.8-2.9,0-.2.2-.2.4,0,.6.2.2.4.2.6,0,.5-.4,1.2-.4,1.7,0,0,0,.2.1.3.1ZM7.7,12c.2,0,.4-.2.4-.4s-.2-.4-.4-.4h-.8c-.2,0-.4.2-.4.4s.2.4.4.4h.8ZM4.4,12c.2,0,.4-.2.4-.4s-.2-.4-.4-.4h-.7c-.2,0-.4.2-.4.4s.2.4.4.4h.7ZM38.3,15.4c.5,0,1.1-.2,1.4-.6.2-.2.2-.4,0-.6-.2-.2-.4-.2-.6,0-.4.4-1.2.4-1.6,0-.2-.2-.4-.2-.6,0-.2.2-.2.4,0,.6.4.4.9.6,1.4.6ZM40.4,12c.2,0,.4-.2.4-.4s-.2-.4-.4-.4h-.7c-.3,0-.4.2-.4.4s.2.4.4.4h.7ZM22,12.1c-3.1,0-5.6-2.5-5.6-5.7S18.9.8,22,.8s5.7,2.5,5.7,5.6-2.6,5.7-5.7,5.7ZM38.3,18.9c-3.1,0-5.7-2.6-5.7-5.7s2.6-5.7,5.7-5.7,5.7,2.6,5.7,5.7-2.6,5.7-5.7,5.7ZM23,26.2l1.9-3.2c.2-.4.7-.5,1.1-.3.4.2.5.7.3,1.1l-1.9,3.2c.5.5.9,1.1,1,1.8h5.8c-.4-4.7-4.4-8.5-9.2-8.5s-8.8,3.7-9.2,8.5h5.8c.4-1.6,1.8-2.8,3.4-2.8s.7,0,1.1.2Z"/>
  </g>
</svg>