<?xml version="1.0" encoding="UTF-8"?>
<svg id="Layer_1" xmlns="http://www.w3.org/2000/svg" xmlns:xlink="http://www.w3.org/1999/xlink" version="1.1" viewBox="0 0 44 44">
  <!-- Generator: Adobe Illustrator 29.1.0, SVG Export Plug-In . SVG Version: 2.1.0 Build 142)  -->
  <defs>
    <style>
      .st0 {
        fill: none;
      }

      .st1 {
        fill: url(#linear-gradient);
      }

      .st2 {
        fill: #144d76;
      }

      .st3 {
        clip-path: url(#clippath);
      }
    </style>
    <clipPath id="clippath">
      <rect class="st0" width="44" height="44"/>
    </clipPath>
    <linearGradient id="linear-gradient" x1="20.7" y1="25.9" x2="18.1" y2="25.9" gradientTransform="translate(0 46) scale(1 -1)" gradientUnits="userSpaceOnUse">
      <stop offset="0" stop-color="#a121ca"/>
      <stop offset="1" stop-color="#7b1fe4"/>
    </linearGradient>
  </defs>
  <g class="st3">
    <g>
      <path class="st2" d="M42.7,20.7h-9.1v-3.4h4.8c.7,0,1.3-.6,1.3-1.3s-.6-1.3-1.3-1.3h-4.8v-2.8c0-.7-.6-1.3-1.3-1.3h-2.5v-5.4h4.6c.5,1.5,2,2.6,3.6,2.6s3.9-1.7,3.9-3.9-1.7-3.9-3.9-3.9-3.1,1.1-3.6,2.6h-5.8c-.7,0-1.3.6-1.3,1.3v6.7h-4V1.3c0-.7-.6-1.3-1.3-1.3s-1.3.6-1.3,1.3v9.3h-4V3.9c0-.7-.6-1.3-1.3-1.3h-5.8c-.5-1.5-2-2.6-3.6-2.6s-3.9,1.7-3.9,3.9,1.7,3.9,3.9,3.9,3.1-1.1,3.6-2.6h4.6v5.4h-2.5c-.7,0-1.3.6-1.3,1.3v2.8h-4.8c-.7,0-1.3.6-1.3,1.3s.6,1.3,1.3,1.3h4.8v3.4H1.3c-.7,0-1.3.6-1.3,1.3s.6,1.3,1.3,1.3h9.1v3.4h-4.8c-.7,0-1.3.6-1.3,1.3s.6,1.3,1.3,1.3h4.8v2.8c0,.7.6,1.3,1.3,1.3h2.5v5.4h-4.6c-.5-1.5-2-2.6-3.6-2.6s-3.9,1.7-3.9,3.9,1.7,3.9,3.9,3.9,3.1-1.1,3.6-2.6h5.8c.7,0,1.3-.6,1.3-1.3v-6.7h4v9.3c0,.7.6,1.3,1.3,1.3s1.3-.6,1.3-1.3v-9.3h4v6.7c0,.7.6,1.3,1.3,1.3h5.8c.5,1.5,2,2.6,3.6,2.6s3.9-1.7,3.9-3.9-1.7-3.9-3.9-3.9-3.1,1.1-3.6,2.6h-4.6v-5.4h2.5c.7,0,1.3-.6,1.3-1.3v-2.8h4.8c.7,0,1.3-.6,1.3-1.3s-.6-1.3-1.3-1.3h-4.8v-3.4h9.1c.7,0,1.3-.6,1.3-1.3s-.6-1.3-1.3-1.3ZM18.1,24v2.5c0,.7-.6,1.3-1.3,1.3s-1.3-.6-1.3-1.3v-6.5c0-2.1,1.7-3.9,3.9-3.9s3.9,1.7,3.9,3.9v6.5c0,.7-.6,1.3-1.3,1.3s-1.3-.6-1.3-1.3v-2.5h-2.6ZM28.4,26.5c0,.7-.6,1.3-1.3,1.3s-1.3-.6-1.3-1.3v-9.1c0-.7.6-1.3,1.3-1.3s1.3.6,1.3,1.3v9.1Z"/>
      <path class="st1" d="M20.7,20v1.4h-2.6v-1.4c0-.7.6-1.3,1.3-1.3s1.3.6,1.3,1.3Z"/>
    </g>
  </g>
</svg>